<?xml version="1.0" encoding="UTF-8" standalone="no"?>
<svg
   height="128"
   width="128"
   version="1.1"
   id="svg7"
   sodipodi:docname="icon.svg"
   inkscape:version="1.4.2 (f4327f4, 2025-05-13)"
   inkscape:export-filename="icon.png"
   inkscape:export-xdpi="96"
   inkscape:export-ydpi="96"
   xmlns:inkscape="http://www.inkscape.org/namespaces/inkscape"
   xmlns:sodipodi="http://sodipodi.sourceforge.net/DTD/sodipodi-0.dtd"
   xmlns:xlink="http://www.w3.org/1999/xlink"
   xmlns="http://www.w3.org/2000/svg"
   xmlns:svg="http://www.w3.org/2000/svg">
  <defs
     id="defs7">
    <linearGradient
       id="linearGradient7"
       inkscape:collect="always">
      <stop
         style="stop-color:#0000ff;stop-opacity:1;"
         offset="0"
         id="stop8" />
      <stop
         style="stop-color:#0000ff;stop-opacity:1;"
         offset="0.50352943"
         id="stop9" />
      <stop
         style="stop-color:#ffff00;stop-opacity:1;"
         offset="0.51294118"
         id="stop10" />
      <stop
         style="stop-color:#ffff00;stop-opacity:1;"
         offset="1"
         id="stop7" />
    </linearGradient>
    <linearGradient
       inkscape:collect="always"
       xlink:href="#linearGradient7"
       id="linearGradient8"
       x1="64.000008"
       y1="1.5376513e-06"
       x2="64.000008"
       y2="128.00002"
       gradientUnits="userSpaceOnUse" />
  </defs>
  <sodipodi:namedview
     id="namedview7"
     pagecolor="#ffffff"
     bordercolor="#999999"
     borderopacity="1"
     inkscape:showpageshadow="2"
     inkscape:pageopacity="0"
     inkscape:pagecheckerboard="0"
     inkscape:deskcolor="#d1d1d1"
     inkscape:zoom="6.4453125"
     inkscape:cx="57.949091"
     inkscape:cy="64"
     inkscape:window-width="1920"
     inkscape:window-height="1027"
     inkscape:window-x="1912"
     inkscape:window-y="-8"
     inkscape:window-maximized="1"
     inkscape:current-layer="svg7" />
  <rect
     x="2"
     y="2"
     width="124"
     height="124"
     rx="14"
     fill="#363d52"
     stroke="#212532"
     stroke-width="4"
     id="rect1"
     style="fill:url(#linearGradient8)"
     inkscape:export-filename="rect1.png"
     inkscape:export-xdpi="96"
     inkscape:export-ydpi="96" />
  <g
     transform="scale(.101) translate(122 122)"
     id="g7">
    <g
       fill="#fff"
       id="g4">
      <path
         d="m 105,673 v 33 q 407,354 814,0 v -33 z"
         id="path1"
         style="display:inline" />
      <path
         d="m 105,673 152,14 q 12,1 15,14 l 4,67 132,10 8,-61 q 2,-11 15,-15 h 162 q 13,4 15,15 l 8,61 132,-10 4,-67 q 3,-13 15,-14 L 919,673 V 427 q 30,-39 56,-81 -35,-59 -83,-108 -43,20 -82,47 -40,-37 -88,-64 7,-51 8,-102 -59,-28 -123,-42 -26,43 -46,89 -49,-7 -98,0 -20,-46 -46,-89 -64,14 -123,42 1,51 8,102 -48,27 -88,64 -39,-27 -82,-47 -48,49 -83,108 26,42 56,81 z m 0,33 v 39 c 0,276 813,276 814,0 v -39 l -134,12 -5,69 q -2,10 -14,13 l -162,11 q -12,0 -16,-11 L 578,735 H 446 l -10,65 q -4,11 -16,11 L 258,800 q -12,-3 -14,-13 l -5,-69 z"
         fill="#478cbf"
         id="path2"
         style="display:inline" />
      <path
         d="m 483,600 c 0,34 58,34 58,0 v -86 c 0,-34 -58,-34 -58,0 z"
         id="path3"
         style="display:inline" />
      <circle
         cx="725"
         cy="526"
         r="90"
         id="circle3" />
      <circle
         cx="299"
         cy="526"
         r="90"
         id="circle4" />
    </g>
    <g
       fill="#414042"
       id="g6">
      <circle
         cx="307"
         cy="532"
         r="60"
         id="circle5" />
      <circle
         cx="717"
         cy="532"
         r="60"
         id="circle6" />
    </g>
  </g>
</svg>
